<?xml version="1.0" encoding="UTF-8"?>
<svg width="6px" height="15px" viewBox="0 0 6 15" version="1.1" xmlns="http://www.w3.org/2000/svg" xmlns:xlink="http://www.w3.org/1999/xlink">
    <!-- Generator: Sketch 64 (93537) - https://sketch.com -->
    <title>Shape</title>
    <desc>Created with Sketch.</desc>
    <g id="Page-1" stroke="none" stroke-width="1" fill="none" fill-rule="evenodd">
        <path d="M4.49995533,4.00367996 C4.84545619,4.02515193 5.44769069,4.23696396 5.7281841,4.62846954 C6.00940999,5.01993038 6.07679799,5.52089827 5.90983872,5.97033343 L3.64158232,12.0648836 L5.99920107,12.0648836 C5.99965887,13.3333402 5.06117105,14.4162432 3.78057008,14.6247897 L2.50041636,14.8527155 C2.12237542,14.9181687 1.75606618,14.9754935 1.50004467,14.99621 C1.01244302,15.0356648 0.552309309,14.762926 0.2718159,14.3714204 C-0.00940998785,13.9799596 -0.0767979915,13.4789917 0.0901612811,13.0295565 L2.35841768,6.93500639 L6.64501637e-05,6.93500639 C-0.00194786516,5.6650736 0.972889193,4.73131132 2.2197046,4.3729531 C2.81470588,4.20189307 3.92326601,3.96780387 4.49995533,4.00367996 Z M4.5,0 C5.32844499,0 6,0.671555013 6,1.5 C6,2.32839921 5.32849077,3 4.5,3 C3.67155501,3 3,2.32835343 3,1.5 C3,0.671555013 3.67155501,0 4.5,0 Z" id="Shape" fill="#0F0F0F"></path>
    </g>
</svg>